<?xml version="1.0" standalone="no"?>
<!DOCTYPE svg PUBLIC "-//W3C//DTD SVG 20010904//EN"
 "http://www.w3.org/TR/2001/REC-SVG-20010904/DTD/svg10.dtd">
<svg version="1.0" xmlns="http://www.w3.org/2000/svg"
 width="1080.000000pt" height="1280.000000pt" viewBox="0 0 1080.000000 1280.000000"
 preserveAspectRatio="xMidYMid meet">
<metadata>
Created by potrace 1.15, written by Peter Selinger 2001-2017
</metadata>
<g transform="translate(0.000000,1280.000000) scale(0.100000,-0.100000)"
fill="#000000" stroke="none">
<path d="M0 11569 c0 -1109 2 -1231 16 -1225 8 3 88 -12 177 -33 89 -22 180
-42 202 -45 62 -9 143 -35 160 -52 8 -8 15 -31 15 -51 0 -41 -12 -55 -195
-243 -62 -63 -141 -153 -175 -200 -35 -47 -87 -111 -116 -143 -77 -86 -84
-105 -84 -241 l0 -116 26 0 c14 0 57 7 96 16 63 14 72 15 85 1 17 -17 18 -16
-30 -177 -14 -47 -30 -129 -36 -182 -33 -301 16 -1207 73 -1342 22 -53 183
-293 234 -349 78 -86 135 -174 211 -324 93 -183 135 -245 222 -328 83 -78 176
-127 288 -150 112 -24 108 -22 77 -54 -75 -78 -44 -196 64 -251 22 -11 40 -27
40 -35 0 -21 51 -73 75 -77 26 -4 23 7 -20 81 -25 42 -47 67 -73 80 -75 38
-91 77 -62 152 27 73 25 93 -11 123 -28 23 -28 26 -9 26 36 0 97 -38 119 -73
28 -46 29 -129 1 -175 -26 -42 -26 -42 13 -42 48 -1 107 -32 150 -79 44 -49
57 -78 57 -131 0 -21 4 -41 9 -44 10 -6 15 12 30 109 10 68 45 161 69 189 29
31 69 46 124 46 47 0 61 -6 126 -50 41 -28 79 -50 87 -50 7 0 37 -11 67 -25
30 -13 90 -30 134 -36 43 -6 93 -13 110 -15 18 -2 53 -20 78 -40 38 -29 52
-34 76 -29 17 4 30 10 30 15 0 14 -46 38 -86 46 -53 9 -94 30 -126 65 -16 17
-37 29 -52 29 -51 0 -130 39 -185 92 -120 116 -174 175 -196 220 -19 36 -31
48 -57 53 -18 4 -64 23 -103 41 -56 27 -77 43 -103 83 l-34 49 -61 -1 c-107
-3 -158 36 -172 133 -5 37 -2 54 19 95 14 28 26 58 26 69 0 10 -23 43 -50 73
-28 31 -58 69 -67 87 -9 17 -30 49 -48 71 -86 106 -101 196 -46 268 18 23 41
61 52 85 19 41 20 45 4 69 -9 14 -25 49 -35 79 -11 30 -26 64 -34 76 -23 32
-21 145 2 180 34 51 69 70 145 78 49 5 86 16 117 34 51 29 115 34 158 12 15
-8 48 -36 74 -63 25 -26 75 -74 111 -105 63 -56 65 -57 102 -47 25 7 82 7 186
-1 l148 -11 42 33 c35 28 51 34 113 39 86 7 219 54 272 96 58 45 75 51 150 59
68 7 70 8 141 75 82 78 128 97 192 79 21 -5 49 -20 63 -33 26 -25 114 -151
141 -204 9 -17 38 -48 65 -70 27 -21 61 -54 76 -73 25 -31 27 -42 24 -93 -7
-102 -63 -147 -181 -147 -101 0 -156 36 -180 120 -15 52 -40 72 -61 50 -32
-33 -79 -173 -84 -252 -5 -91 1 -124 28 -138 11 -6 66 -17 123 -24 116 -15
188 -45 231 -96 21 -25 26 -42 26 -83 0 -29 -6 -63 -13 -77 -7 -14 -81 -92
-164 -173 -157 -154 -213 -221 -197 -237 5 -5 33 -2 66 6 95 25 160 -4 295
-133 58 -55 72 -75 78 -108 10 -62 12 -65 47 -65 60 -1 116 -34 138 -82 39
-85 28 -117 -81 -243 -72 -83 -88 -97 -132 -110 -93 -28 -208 -39 -279 -26
-35 6 -106 11 -156 11 -69 0 -104 5 -144 21 -43 17 -65 20 -117 14 -36 -4 -74
-10 -85 -15 -18 -6 -14 -11 31 -33 61 -32 89 -64 98 -116 10 -60 -10 -116 -52
-148 -42 -33 -52 -43 -98 -101 -26 -33 -35 -54 -35 -81 0 -21 -5 -63 -11 -95
-10 -48 -9 -70 6 -137 18 -78 18 -81 -1 -126 -35 -84 -57 -91 -409 -128 -177
-19 -231 -29 -380 -67 -105 -26 -132 -30 -212 -25 -154 9 -196 38 -245 170
-12 33 -33 68 -50 82 -41 35 -58 72 -58 131 l0 51 -61 12 c-54 11 -68 19 -132
80 -69 65 -114 97 -123 88 -2 -2 7 -73 21 -158 14 -84 25 -174 24 -199 -1 -31
-5 -14 -15 55 -7 55 -25 159 -39 231 -44 231 -27 322 63 339 20 3 66 15 102
26 36 11 119 24 184 30 143 11 149 12 171 46 l17 26 -43 -7 c-24 -4 -98 -12
-164 -16 -150 -11 -332 -58 -355 -91 -47 -69 -62 -183 -39 -289 48 -224 61
-330 63 -505 1 -217 -1 -223 -104 -284 -78 -47 -131 -95 -156 -143 -13 -25
-15 -45 -9 -92 15 -123 15 -408 -1 -463 -8 -29 -17 -53 -21 -53 -4 0 -21 5
-39 12 -29 10 -36 9 -54 -7 -35 -32 -21 -95 21 -95 29 0 31 -16 9 -103 -29
-120 -45 -219 -69 -407 -59 -469 -72 -676 -52 -832 6 -40 15 -149 21 -243 13
-184 45 -419 84 -610 13 -66 38 -194 55 -285 17 -91 40 -214 52 -275 35 -190
220 -718 336 -962 82 -173 89 -183 115 -183 15 0 28 2 28 4 0 2 -20 44 -45 95
-57 115 -58 133 -2 26 23 -45 51 -91 62 -103 l19 -22 2403 0 c2352 0 2403 0
2422 19 11 11 25 45 31 76 14 68 52 181 73 221 24 43 20 27 -12 -62 -16 -43
-34 -111 -40 -151 -6 -39 -14 -78 -17 -87 -5 -12 0 -16 20 -16 27 0 36 21 51
115 4 22 25 93 47 158 34 98 45 118 64 123 36 9 53 -2 71 -43 36 -88 223 -259
351 -323 49 -24 73 -30 124 -30 58 1 61 2 35 13 -24 10 -1 12 140 12 146 1
163 -1 128 -11 -38 -12 -37 -12 45 -12 80 0 83 0 55 13 l-30 14 36 1 c19 0 44
-7 55 -15 16 -12 90 -14 474 -15 l455 0 58 64 c82 92 101 96 279 67 62 -10
108 -34 147 -75 l24 -26 616 0 616 0 31 58 c18 31 34 69 38 83 8 36 66 86 115
99 21 5 45 18 52 27 8 9 37 26 64 39 58 26 80 48 123 127 l32 57 -24 48 c-15
30 -26 74 -31 122 -5 58 -12 80 -31 103 -38 46 -73 121 -94 204 -14 52 -29 86
-54 114 -21 25 -44 71 -61 122 -31 96 -37 108 -81 166 -19 24 -36 58 -40 77
-5 28 -14 37 -49 53 -39 17 -85 65 -97 102 -3 8 -24 21 -46 27 -23 7 -65 33
-94 58 -29 25 -77 57 -105 71 -65 31 -120 90 -129 138 -3 20 -1 82 5 138 9 85
9 112 -3 158 -44 166 -57 270 -71 538 -19 361 -37 530 -79 737 -53 257 -96
375 -163 445 -21 22 -45 65 -60 105 -14 38 -31 85 -39 104 -7 19 -13 51 -14
71 0 19 -12 58 -26 85 -15 27 -32 81 -39 119 -7 39 -39 135 -70 215 -31 80
-68 181 -82 225 -14 44 -45 123 -70 175 -25 52 -63 138 -85 190 -22 52 -92
199 -155 325 -64 127 -126 257 -138 290 -20 53 -187 398 -217 450 -43 72 -75
140 -138 289 -39 92 -120 277 -179 410 -60 132 -123 277 -140 321 -96 240
-292 551 -530 837 -69 83 -167 206 -216 272 -82 110 -95 122 -137 136 -68 22
-97 48 -190 166 -46 59 -90 111 -99 117 -11 7 -26 3 -56 -18 -71 -46 -168 -30
-233 40 -33 35 -69 61 -100 70 -24 7 -24 7 6 -26 18 -19 44 -54 59 -79 15 -25
45 -65 65 -90 21 -25 54 -71 74 -103 20 -32 100 -128 178 -215 77 -86 160
-182 184 -212 24 -30 93 -95 153 -145 285 -234 340 -289 475 -477 42 -59 81
-110 87 -113 5 -4 26 -32 47 -62 20 -31 46 -70 58 -87 12 -17 24 -42 29 -56 4
-14 20 -39 36 -55 37 -39 84 -136 104 -216 9 -35 23 -76 32 -93 8 -16 24 -61
35 -99 10 -39 30 -88 43 -111 13 -23 36 -84 50 -136 15 -52 44 -149 66 -215
21 -66 43 -151 49 -190 7 -44 24 -96 47 -139 33 -64 68 -163 121 -341 18 -63
36 -152 101 -520 11 -60 23 -166 27 -235 4 -69 13 -143 21 -165 8 -22 17 -87
20 -145 5 -100 8 -110 54 -206 27 -56 49 -114 49 -129 0 -15 -12 -54 -27 -87
-18 -41 -24 -64 -17 -73 5 -8 22 -32 37 -54 30 -42 41 -76 56 -177 5 -37 20
-77 35 -100 36 -55 50 -131 37 -194 -6 -28 -11 -70 -11 -93 0 -66 -44 -119
-117 -138 -47 -13 -86 -49 -81 -76 3 -14 16 -19 65 -25 40 -4 73 -15 93 -29
30 -23 80 -108 80 -138 0 -9 14 -36 30 -60 17 -24 35 -63 40 -85 6 -23 17 -63
25 -91 26 -87 30 -186 10 -224 -12 -25 -15 -45 -10 -78 l7 -45 127 7 c153 8
177 1 256 -79 35 -35 66 -57 87 -61 193 -40 223 -58 252 -155 82 -276 1 -462
-188 -429 -51 8 -102 62 -111 116 -10 58 -13 63 -35 63 -11 0 -47 14 -79 31
l-60 32 -83 -26 c-46 -14 -128 -33 -183 -42 -55 -10 -118 -24 -140 -32 -22 -7
-60 -20 -84 -28 -24 -8 -75 -35 -112 -61 -59 -41 -76 -47 -143 -55 -59 -6 -91
-16 -142 -45 -61 -34 -70 -36 -128 -32 -75 6 -235 74 -281 118 -17 16 -58 43
-91 60 -34 17 -80 51 -103 75 -39 43 -41 47 -41 111 0 63 2 68 38 104 45 45
96 56 170 36 46 -12 54 -11 79 5 15 11 66 30 113 44 108 32 270 113 280 140 4
11 12 43 17 70 6 28 13 58 18 67 7 17 5 17 -29 3 -43 -18 -95 -19 -148 -3 -37
11 -43 9 -143 -42 -93 -46 -111 -52 -148 -47 -62 9 -165 -22 -218 -65 -24 -19
-54 -41 -66 -47 -13 -6 -32 -30 -43 -51 -26 -51 -88 -96 -159 -117 -48 -13
-65 -14 -115 -4 -58 12 -59 12 -90 -17 -45 -43 -73 -55 -128 -53 -59 1 -99 20
-133 65 -28 37 -39 40 -186 49 l-57 3 -5 -45 c-3 -25 -8 -53 -11 -61 -8 -21
74 -82 127 -96 64 -16 162 -86 192 -138 49 -84 28 -189 -47 -237 -28 -17 -44
-20 -108 -15 -91 6 -362 75 -444 113 -53 25 -66 38 -129 128 -39 55 -85 116
-102 135 -90 100 -142 196 -252 469 -81 201 -117 348 -129 527 -6 78 -3 102
15 165 27 91 90 200 134 232 35 26 145 74 277 119 71 25 109 31 235 38 186 11
405 29 426 36 10 2 48 -2 85 -10 88 -20 350 -9 365 15 5 7 9 39 9 69 0 64 -26
133 -94 247 -40 69 -46 87 -46 135 0 46 5 62 31 97 19 27 28 49 24 59 -3 10
-33 65 -66 123 l-60 107 -73 4 c-81 4 -96 12 -147 82 -24 33 -29 49 -29 100 0
44 6 70 20 94 26 42 19 65 -26 92 -49 31 -76 72 -115 173 -19 48 -45 101 -59
118 l-26 31 -35 -60 -36 -59 20 -49 c21 -55 46 -370 33 -436 -14 -77 -96 -123
-241 -134 -59 -5 -75 -2 -102 15 -43 27 -70 83 -89 184 -8 45 -22 106 -31 135
-11 41 -13 77 -8 156 7 104 -2 140 -24 97 -25 -47 -23 -125 8 -295 20 -104 29
-182 25 -200 -11 -50 -41 -83 -113 -126 -60 -36 -74 -40 -133 -40 -57 0 -71 4
-97 26 -43 36 -75 95 -101 184 -43 147 -59 179 -93 194 -65 27 -107 99 -107
184 0 36 -22 93 -46 122 l-26 30 -26 -32 c-14 -17 -43 -38 -64 -48 l-38 -17
38 -24 c45 -29 63 -65 97 -187 34 -125 35 -244 2 -292 -34 -50 -81 -72 -147
-68 -107 7 -132 46 -165 252 -33 204 -20 257 75 306 l35 18 -27 11 c-35 13
-73 65 -89 121 -7 25 -15 48 -19 52 -3 4 -23 -5 -44 -19 -46 -33 -83 -35 -211
-9 -157 30 -154 29 -257 129 -76 73 -99 102 -107 135 -15 52 -31 68 -106 102
-34 15 -73 42 -88 59 l-27 33 0 217 0 217 34 64 c43 81 96 214 96 241 0 11 9
47 21 81 19 57 19 63 5 106 -38 110 -7 200 89 257 14 9 19 33 26 120 13 161
23 195 80 265 50 63 52 68 153 400 15 47 33 96 41 110 19 33 19 18 -1 -28 -8
-20 -28 -86 -44 -147 -43 -164 -87 -286 -119 -325 -43 -54 -61 -95 -61 -142 0
-73 -30 -287 -56 -403 -42 -189 -100 -353 -168 -476 l-63 -114 -7 -203 c-4
-134 -3 -209 4 -222 6 -10 41 -36 78 -56 37 -21 119 -73 183 -115 64 -43 133
-85 153 -93 20 -9 79 -53 131 -100 52 -46 106 -86 119 -88 39 -8 81 16 112 63
38 58 124 102 208 107 47 3 79 -2 139 -23 85 -28 86 -28 193 16 83 33 126 36
284 19 114 -12 115 -12 190 14 46 17 106 29 157 33 71 5 91 2 145 -18 59 -21
136 -64 183 -99 30 -22 82 -91 123 -164 87 -150 116 -194 143 -210 15 -9 38
-34 51 -55 56 -92 86 -137 124 -185 23 -28 55 -78 72 -111 17 -33 49 -84 71
-114 26 -34 41 -65 41 -83 0 -100 104 -174 169 -121 18 15 22 32 27 113 7 120
-9 443 -29 580 -9 58 -20 148 -27 201 -6 53 -17 116 -24 140 -8 24 -17 78 -21
119 -8 88 -68 329 -124 503 -22 67 -63 201 -90 297 -59 207 -132 403 -207 555
-61 125 -128 231 -152 244 -10 5 -105 14 -212 21 -107 6 -224 16 -260 21 -104
15 -255 68 -399 142 -91 46 -170 78 -244 98 -129 35 -150 45 -242 115 -38 29
-88 60 -110 69 -54 23 -142 91 -171 134 -25 38 -34 111 -12 111 6 0 31 -20 55
-45 31 -33 45 -57 49 -87 9 -50 38 -81 101 -102 42 -14 44 -14 37 2 -4 9 -9
48 -12 85 -5 75 22 181 62 240 27 40 79 67 129 67 29 0 46 8 80 38 23 21 63
53 88 70 51 34 101 87 124 131 11 21 13 46 9 88 -4 41 0 85 15 150 14 62 18
100 12 115 -5 13 -12 47 -16 76 -4 28 -11 52 -15 52 -5 0 -23 -20 -39 -44 -29
-41 -81 -76 -114 -76 -9 0 -26 -19 -39 -42 -16 -29 -41 -54 -78 -76 -30 -18
-61 -45 -69 -60 -24 -47 -44 -64 -121 -99 -57 -27 -89 -36 -135 -37 l-60 -1
-3 65 c-4 88 18 143 82 203 102 97 223 194 341 271 66 44 165 116 220 161 200
163 332 245 397 245 12 0 67 -24 123 -54 100 -54 116 -59 295 -86 158 -25 185
-42 302 -196 38 -50 62 -69 127 -103 65 -34 89 -53 131 -107 28 -36 67 -91 85
-123 19 -31 69 -97 112 -145 137 -154 314 -390 402 -535 31 -51 73 -120 94
-153 21 -33 51 -93 67 -132 141 -354 573 -1281 674 -1449 26 -41 46 -78 46
-82 0 -22 161 -367 185 -395 7 -8 18 -33 25 -55 7 -22 57 -135 110 -250 53
-116 114 -251 135 -300 21 -50 52 -112 68 -140 85 -143 325 -786 342 -915 3
-25 19 -88 35 -140 16 -52 33 -131 38 -175 12 -108 82 -266 130 -295 33 -21
42 -40 18 -40 -25 0 -76 -50 -76 -74 0 -13 9 -49 20 -81 20 -57 20 -57 0 -82
-33 -42 -21 -102 29 -147 28 -25 28 -99 0 -213 -11 -48 -17 -98 -14 -113 13
-59 196 -275 260 -307 22 -11 101 -79 175 -150 90 -87 147 -134 172 -142 51
-17 137 -131 138 -183 1 -40 33 -86 95 -135 70 -57 109 -110 129 -175 18 -57
29 -79 70 -133 50 -65 70 -149 61 -267 -6 -84 -4 -103 13 -141 11 -24 34 -54
52 -67 l32 -23 -22 -12 c-41 -22 -50 -52 -44 -145 5 -66 3 -94 -10 -124 -9
-21 -16 -57 -16 -80 0 -23 -11 -65 -26 -96 -14 -30 -39 -87 -55 -126 -30 -73
-55 -103 -123 -148 l-39 -26 47 0 c38 0 52 6 84 34 21 19 49 59 62 88 12 29
38 87 56 128 18 41 36 100 40 130 3 30 13 72 21 93 15 38 14 140 -3 195 -5 19
-1 24 30 37 60 25 58 50 -12 127 l-37 41 0 131 c0 153 -15 212 -76 292 -22 28
-46 74 -54 102 -21 71 -90 170 -141 201 -53 33 -81 74 -93 133 -5 30 -23 66
-49 100 -62 81 -70 88 -98 88 -19 0 -60 34 -168 139 -79 76 -161 148 -183 159
-23 12 -71 58 -118 114 -43 51 -87 101 -97 111 -22 21 -32 60 -25 90 3 12 13
49 21 82 19 71 21 158 5 188 -7 12 -23 35 -36 51 -22 27 -23 33 -17 116 5 70
3 97 -10 129 -21 55 -21 54 19 47 64 -12 100 57 53 101 -13 12 -32 23 -42 25
-14 2 -25 19 -36 58 -9 30 -26 73 -38 96 -12 24 -25 77 -31 135 -6 52 -19 117
-30 145 -11 28 -26 86 -35 130 -35 182 -219 682 -346 939 -78 158 -284 606
-305 663 -7 20 -45 100 -83 177 -72 143 -132 277 -132 292 0 4 -23 46 -50 93
-105 176 -491 998 -637 1355 -66 162 -166 341 -280 502 -150 213 -200 278
-288 377 -52 58 -120 143 -150 189 -124 187 -129 192 -211 233 -58 29 -87 51
-127 98 -29 33 -79 88 -112 122 -66 68 -70 70 -305 108 -79 13 -114 25 -206
72 -99 51 -116 56 -156 52 -88 -10 -232 -98 -411 -251 -38 -32 -126 -96 -195
-142 -150 -98 -266 -190 -365 -289 -62 -60 -76 -81 -96 -139 -23 -67 -24 -106
-5 -174 6 -20 3 -23 -25 -23 -53 0 -71 28 -71 115 0 110 -48 238 -133 353 -78
105 -311 459 -391 593 -65 110 -101 148 -148 158 -54 11 -66 50 -56 182 3 40
-6 63 -65 184 -88 179 -99 193 -148 201 -22 4 -42 11 -45 16 -4 5 -1 29 6 53
15 55 8 85 -31 129 -29 33 -29 35 -10 45 35 19 661 36 893 25 200 -10 210 -12
265 -40 111 -56 131 -159 60 -307 -19 -40 -93 -168 -166 -286 -85 -139 -131
-224 -131 -242 0 -46 50 -80 88 -60 10 5 69 48 131 94 278 209 662 362 1095
437 264 45 488 72 740 90 188 13 1063 30 1641 30 983 2 1343 31 1790 145 278
71 424 129 628 248 l87 51 0 1248 0 1248 -5400 0 -5400 0 0 -1231z m482 1066
c20 -135 30 -194 38 -235 5 -25 23 -119 40 -210 17 -91 40 -208 50 -260 11
-52 20 -98 20 -102 0 -4 4 -8 8 -8 9 0 38 125 122 535 53 259 61 293 74 310
10 14 33 17 134 17 146 1 153 -3 170 -94 7 -35 32 -173 57 -308 69 -381 83
-453 93 -480 9 -24 10 -24 20 15 6 22 47 191 91 375 43 184 90 367 102 405
l24 70 80 3 c44 2 113 0 153 -3 67 -6 72 -8 72 -30 0 -31 -18 -110 -184 -805
-25 -102 -54 -225 -66 -275 -69 -288 -132 -544 -141 -572 l-11 -33 -136 0
c-75 0 -147 3 -159 6 -29 8 -35 30 -73 254 -70 413 -92 530 -100 530 -7 0 -15
-32 -60 -235 -5 -25 -14 -65 -20 -90 -5 -25 -15 -66 -21 -92 -19 -88 -28 -127
-49 -223 -29 -128 -33 -137 -69 -142 -37 -5 -268 5 -275 13 -8 8 -59 255 -185
889 -146 739 -153 779 -146 807 l6 23 167 -2 167 -3 7 -50z m3278 18 c78 -21
174 -77 238 -138 64 -63 66 -55 -45 -180 -99 -112 -105 -116 -140 -87 -15 12
-55 36 -88 52 -114 57 -234 33 -323 -64 -51 -55 -75 -102 -109 -213 -24 -79
-27 -104 -27 -243 0 -176 11 -242 59 -346 58 -127 141 -184 265 -184 43 0 72
8 128 35 40 19 78 32 85 30 21 -9 137 -211 137 -240 0 -33 -120 -111 -221
-145 -67 -23 -220 -27 -297 -9 -84 21 -204 83 -264 138 -135 124 -220 335
-237 590 -17 255 17 480 100 647 85 173 225 296 404 354 89 29 234 31 335 3z
m3010 -34 c127 -9 151 -13 206 -40 196 -93 325 -293 375 -579 8 -43 14 -151
14 -255 0 -157 -3 -192 -24 -269 -83 -317 -277 -542 -497 -576 -78 -12 -598
-10 -610 3 -7 7 11 1217 23 1531 5 136 9 162 25 178 16 16 36 18 181 18 89 0
227 -5 307 -11z m2372 -30 l21 -11 -7 -532 c-11 -808 -22 -1147 -38 -1158 -16
-11 -273 -6 -285 5 -11 11 -6 946 7 1351 9 272 13 323 27 338 14 15 33 18 135
18 69 0 128 -5 140 -11z m1326 -11 c12 -15 4 -109 -32 -389 -14 -107 -37 -283
-51 -392 -30 -236 -54 -403 -61 -421 -7 -18 -37 -26 -96 -26 -79 0 -80 5 -98
275 -5 83 -14 218 -20 300 -30 442 -39 629 -29 646 9 18 24 19 193 19 135 0
186 -3 194 -12z m-804 -444 c3 -9 6 -66 6 -128 0 -74 4 -116 12 -124 7 -7 33
-12 58 -12 25 0 51 -5 58 -12 17 -17 17 -239 0 -256 -7 -7 -35 -12 -62 -12
-28 0 -57 -4 -64 -9 -10 -6 -15 -90 -22 -351 -6 -189 -13 -346 -16 -349 -9 -9
-260 -5 -274 4 -10 6 -11 75 -6 330 4 177 4 333 1 347 -6 23 -13 26 -65 32
l-58 7 -7 92 c-3 51 -3 110 2 132 9 43 26 52 94 54 34 1 37 3 43 39 3 20 6 67
6 103 0 37 3 81 6 98 l7 31 137 0 c117 0 139 -2 144 -16z m-7390 -214 c52 -16
79 -33 127 -78 121 -111 171 -223 173 -385 l1 -102 -195 -6 c-107 -4 -250 -7
-317 -8 -135 -1 -145 -6 -95 -54 45 -43 119 -71 192 -71 53 0 78 6 134 32 l68
32 30 -21 c46 -33 128 -137 121 -155 -9 -25 -73 -50 -158 -64 -160 -25 -241
-39 -315 -54 -41 -9 -86 -16 -100 -16 -74 0 -220 135 -276 255 -93 197 -49
434 109 581 63 59 149 110 210 124 68 16 222 11 291 -10z m2152 5 c27 -8 67
-23 89 -34 39 -19 40 -19 61 0 17 16 35 19 116 19 72 0 99 -4 108 -15 9 -11
11 -117 5 -477 -6 -388 -9 -467 -22 -487 -15 -23 -18 -24 -106 -18 -67 4 -98
11 -116 25 -25 19 -26 18 -86 -5 -165 -65 -309 -39 -423 77 -98 99 -152 241
-152 402 0 266 122 456 331 512 70 19 134 19 195 1z m1149 -10 c59 -18 133
-76 170 -135 47 -75 55 -127 54 -364 0 -219 -11 -492 -20 -501 -10 -9 -169
-17 -223 -11 l-56 7 0 316 c0 306 -1 316 -21 345 -40 55 -99 66 -167 29 -36
-19 -43 -67 -53 -361 -5 -157 -11 -295 -14 -307 -5 -22 -9 -23 -120 -23 -62 0
-125 4 -139 10 l-26 10 1 242 c2 455 12 718 29 728 8 5 61 10 117 10 105 0
118 -4 142 -48 9 -15 17 -13 83 20 105 53 152 59 243 33z m2420 -30 c86 -23
173 -73 235 -136 243 -246 176 -656 -132 -813 -65 -33 -91 -40 -173 -47 -179
-17 -299 24 -415 141 -108 108 -150 208 -150 361 0 148 57 278 164 377 117
108 315 157 471 117z m2342 -651 c105 -61 130 -209 51 -300 -44 -50 -83 -67
-153 -67 -66 0 -105 15 -147 60 -36 38 -48 73 -48 140 0 157 161 247 297 167z
m-7394 -88 c-10 -18 -163 -129 -163 -118 0 10 75 82 115 110 35 25 60 29 48 8z
m-325 -174 c3 -17 -10 -37 -46 -73 -54 -54 -81 -60 -113 -28 -20 20 -20 21 -2
52 28 47 80 79 123 75 28 -2 36 -8 38 -26z m96 -4 c-24 -31 -77 -77 -86 -78
-21 0 -3 23 43 60 57 45 71 51 43 18z m-848 -32 c7 -19 -32 -93 -56 -106 -47
-25 -88 23 -53 62 17 19 79 57 96 58 4 0 10 -6 13 -14z m327 -74 c27 -24 36
-71 21 -120 -27 -92 -97 -161 -149 -148 -24 6 -75 105 -75 145 0 28 32 91 59
115 40 36 107 40 144 8z m-714 -137 c53 -27 65 -114 29 -220 l-13 -40 -60 -3
c-55 -3 -63 0 -85 23 -33 35 -32 93 4 163 46 90 71 106 125 77z m342 -101 l41
-26 -4 -59 c-6 -83 -19 -93 -113 -93 -56 0 -79 4 -91 16 -15 15 -14 21 14 82
21 45 41 72 64 86 41 25 40 25 89 -6z m127 -151 c2 -8 -6 -13 -22 -13 -17 0
-26 5 -26 16 0 19 41 16 48 -3z m8747 -169 c-55 -44 -224 -124 -351 -168 -134
-46 -364 -110 -370 -103 -2 2 42 16 99 32 306 85 506 167 596 246 29 26 47 36
50 28 2 -7 -9 -23 -24 -35z m-6085 -104 c73 -4 -27 -6 -275 -6 -214 0 -349 3
-300 6 124 9 436 9 575 0z m270 -39 c69 -35 120 -127 120 -217 0 -95 -39 -178
-223 -477 -60 -98 -107 -181 -104 -184 3 -3 48 26 99 64 125 93 224 153 343
209 109 51 276 117 281 111 2 -2 -40 -21 -94 -42 -209 -82 -393 -185 -556
-312 -71 -55 -102 -67 -94 -35 3 10 58 103 123 208 191 306 236 421 206 530
-16 60 -75 120 -146 150 -45 19 -51 23 -25 19 19 -4 51 -15 70 -24z m-1206
-220 c-7 -50 -8 -53 -15 -26 -3 17 -7 55 -7 85 l-1 55 15 -29 c12 -22 14 -42
8 -85z m6175 65 c-7 -7 -182 -36 -209 -35 -14 1 18 9 70 19 96 18 147 24 139
16z m-251 -43 c-10 -2 -26 -2 -35 0 -10 3 -2 5 17 5 19 0 27 -2 18 -5z m-85
-10 c-13 -2 -33 -2 -45 0 -13 2 -3 4 22 4 25 0 35 -2 23 -4z m-110 -10 c-13
-2 -33 -2 -45 0 -13 2 -3 4 22 4 25 0 35 -2 23 -4z m-143 -14 c-41 -4 -482
-12 -980 -17 -498 -6 -1053 -13 -1235 -15 -223 -3 -281 -2 -180 3 83 4 582 13
1110 19 528 7 1007 13 1065 14 58 2 148 3 200 3 l95 1 -75 -8z m-2655 -50
c-38 -5 -73 -13 -78 -18 -5 -5 -32 -7 -61 -4 -55 6 -264 -17 -441 -48 -110
-19 -181 -24 -115 -9 121 29 597 87 710 87 l55 0 -70 -8z m-2755 -199 l70
-139 0 -91 c0 -124 13 -152 87 -187 56 -27 61 -32 145 -168 82 -134 311 -481
402 -611 51 -72 85 -165 91 -249 5 -57 4 -55 -23 45 -16 58 -34 116 -42 130
-7 14 -85 133 -174 265 -88 132 -201 308 -251 390 -79 131 -96 153 -132 170
-49 24 -90 60 -108 95 -7 14 -16 72 -20 130 -7 100 -10 110 -62 215 -32 65
-67 121 -86 138 l-32 28 32 -12 c29 -9 41 -28 103 -149z m1770 50 c-34 -11
-60 -11 -35 0 11 5 29 8 40 8 16 0 15 -2 -5 -8z m-3090 -30 c103 2 122 -1 175
-23 167 -70 247 -107 288 -136 25 -17 78 -43 119 -57 124 -46 168 -92 168
-177 0 -46 -24 -125 -57 -192 -11 -22 -23 -68 -26 -103 -4 -47 -14 -77 -39
-119 -43 -72 -125 -147 -185 -169 -49 -18 -83 -41 -83 -55 0 -4 21 -11 48 -15
66 -9 136 -47 169 -91 24 -31 28 -46 28 -97 0 -107 -62 -176 -157 -176 -90 0
-182 73 -208 166 -10 34 -18 45 -36 49 -13 3 -36 7 -50 10 -14 3 -47 25 -72
49 -26 23 -67 54 -92 68 -25 14 -54 35 -64 47 -25 27 -27 27 -79 -10 -38 -27
-62 -33 -201 -55 -237 -36 -266 -46 -384 -125 -94 -63 -107 -69 -154 -69 -69
0 -220 37 -260 63 -51 35 -93 98 -128 194 -44 118 -47 168 -20 289 36 162 204
490 291 569 56 50 143 91 269 125 92 25 130 30 233 31 67 1 149 5 182 9 33 5
94 6 135 3 41 -3 127 -4 190 -3z m-2380 -389 c0 -12 -8 -16 -42 -25 -21 -5
-28 -3 -28 8 0 13 17 20 58 25 6 0 12 -3 12 -8z m79 -291 c-10 -41 -24 -117
-30 -168 -15 -124 -6 -663 15 -852 8 -80 20 -192 26 -250 6 -58 16 -123 21
-145 18 -66 141 -264 238 -380 51 -61 111 -144 135 -185 51 -88 138 -260 132
-260 -2 0 -34 57 -71 127 -78 150 -123 218 -216 325 -60 70 -114 149 -196 286
-33 54 -42 91 -58 242 -38 362 -47 547 -42 853 5 299 9 338 47 451 20 61 19
36 -1 -44z m3937 -742 c75 -66 101 -195 56 -272 -42 -71 -103 -134 -155 -160
-29 -14 -74 -42 -101 -61 -84 -61 -176 -46 -241 39 -15 20 -31 51 -34 69 -5
23 -19 40 -50 61 -61 41 -81 78 -81 151 0 74 24 124 71 147 19 9 95 24 168 33
74 8 137 18 140 20 2 3 46 5 97 5 91 0 94 -1 130 -32z m540 -554 c20 -5 21
-11 17 -68 -4 -47 -1 -70 12 -97 29 -55 127 -144 197 -177 34 -16 90 -51 123
-76 77 -60 141 -90 251 -117 87 -21 111 -31 282 -118 103 -52 266 -107 358
-121 38 -5 155 -14 259 -20 l190 -9 33 -38 c88 -100 235 -449 322 -763 17 -63
52 -178 76 -255 62 -192 120 -425 129 -515 3 -41 13 -97 21 -125 9 -27 24
-124 35 -215 11 -91 24 -187 29 -215 14 -77 25 -581 13 -588 -6 -4 -29 13 -52
38 -29 32 -41 53 -41 75 0 41 -24 95 -60 137 -17 18 -44 62 -61 96 -17 34 -46
80 -64 102 -18 22 -49 67 -70 100 -21 33 -63 89 -95 125 -31 36 -65 79 -75 95
-10 17 -33 53 -50 80 -18 28 -47 76 -66 109 -48 83 -134 158 -237 208 l-87 43
-120 0 c-103 -1 -127 -4 -173 -24 -50 -22 -60 -23 -170 -16 -215 15 -240 12
-328 -29 l-79 -37 -75 26 c-115 40 -200 35 -300 -15 -56 -28 -82 -52 -113
-102 -29 -47 -56 -37 -154 52 -49 44 -107 89 -130 100 -23 11 -97 56 -165 101
-68 45 -148 94 -180 110 -65 33 -74 54 -58 138 5 29 10 105 10 169 0 113 0
115 35 173 133 218 222 541 251 911 4 59 11 85 29 110 14 18 32 43 41 56 21
29 89 223 110 312 22 95 75 249 91 266 15 14 52 18 89 8z m-3902 -1001 c15
-25 25 -48 23 -50 -2 -2 -16 19 -31 47 -15 27 -25 50 -22 50 2 0 16 -21 30
-47z m186 -211 c0 -8 -57 38 -85 69 -19 21 -9 15 28 -16 31 -27 57 -51 57 -53z
m2185 -673 c22 -6 54 -26 72 -45 l32 -34 36 24 c132 90 305 -18 305 -191 0
-67 -30 -122 -80 -148 -35 -18 -126 -19 -160 -2 -21 11 -63 64 -106 133 -11
18 -15 16 -48 -22 -44 -52 -82 -68 -146 -62 -60 6 -109 40 -146 103 -50 86
-42 169 22 225 32 27 41 30 107 30 40 0 90 -5 112 -11z m-2198 -871 c-3 -96
-10 -158 -21 -188 -17 -44 -17 -45 6 -60 42 -27 87 -76 94 -104 9 -38 -4 -111
-26 -139 -10 -13 -54 -48 -96 -77 -69 -48 -85 -55 -139 -58 -33 -3 -63 -10
-67 -16 -4 -6 -8 -58 -8 -115 0 -57 -3 -101 -6 -98 -4 4 -8 84 -9 179 -1 95
-6 197 -10 226 l-8 53 54 52 c30 29 81 68 113 87 33 19 68 46 78 60 25 35 38
115 38 236 0 57 3 104 6 104 4 0 4 -64 1 -142z m2293 -63 c285 -32 468 -98
513 -185 13 -26 16 -47 12 -80 -8 -58 -37 -99 -96 -140 -40 -27 -56 -32 -108
-32 -46 0 -67 5 -92 22 -31 23 -32 23 -88 5 -65 -20 -84 -34 -114 -88 -15 -27
-42 -51 -92 -80 -92 -54 -150 -57 -245 -11 -141 67 -188 86 -199 80 -26 -17
-1 -184 37 -250 16 -26 22 -29 77 -30 46 -2 74 -9 120 -34 33 -17 86 -41 117
-52 33 -12 68 -34 82 -51 47 -55 44 -160 -7 -206 -12 -12 -51 -35 -87 -53 -36
-18 -125 -75 -198 -127 -126 -91 -135 -96 -200 -103 -37 -5 -81 -13 -98 -18
-17 -5 -93 -13 -171 -17 -132 -7 -142 -6 -182 15 -38 19 -47 20 -75 8 -53 -22
-143 -16 -218 14 -88 36 -167 48 -316 48 -179 0 -222 28 -235 149 -4 29 -9 56
-12 60 -4 3 -43 -14 -88 -38 -81 -43 -84 -44 -159 -39 -86 6 -132 27 -160 74
-21 36 -42 174 -33 220 7 39 46 89 86 109 34 18 110 19 155 3 30 -10 37 -9 71
15 21 15 101 84 178 153 151 137 381 315 436 338 19 7 53 17 77 21 46 7 190
62 262 100 119 63 452 175 519 175 19 0 60 4 90 10 31 5 79 14 106 19 78 14
188 12 335 -4z m1271 -31 c19 -13 45 -41 56 -62 26 -46 73 -205 73 -247 0 -24
13 -43 61 -90 33 -33 87 -94 119 -135 32 -41 84 -104 115 -140 72 -81 89 -120
82 -182 -7 -57 -26 -88 -75 -121 -43 -28 -99 -39 -157 -30 -33 5 -54 21 -121
87 -64 64 -85 93 -98 134 -19 56 -40 77 -155 154 -39 26 -71 57 -83 79 -30 58
-58 239 -58 375 0 109 2 124 22 149 52 66 147 79 219 29z m-2925 -25 c109 -20
154 -66 154 -156 0 -64 -22 -97 -117 -178 -89 -77 -124 -95 -185 -95 -87 0
-128 49 -163 196 -13 56 -14 79 -6 110 18 63 42 85 122 114 62 22 111 24 195
9z m2404 -707 c44 -22 70 -72 70 -138 0 -57 -23 -97 -86 -144 -37 -28 -44 -29
-137 -30 -156 0 -211 40 -212 155 0 71 24 113 80 139 79 38 227 47 285 18z
m-3337 -169 c-41 -105 -72 -217 -98 -353 -18 -87 -24 -107 -20 -65 2 33 16
110 30 172 14 61 25 126 25 142 0 30 -29 71 -50 71 -5 0 -10 5 -10 10 0 6 16
10 36 10 46 0 70 14 89 50 26 51 25 33 -2 -37z m-126 -550 c-3 -38 -1 -105 3
-150 5 -45 5 -128 1 -185 -6 -89 -11 -109 -34 -143 -23 -34 -27 -51 -28 -115
-1 -41 -4 -100 -9 -130 -7 -52 -7 -50 -8 35 -1 50 3 131 8 180 40 397 61 575
68 575 3 0 2 -30 -1 -67z m-32 -1152 c8 -112 14 -206 11 -208 -8 -8 -36 308
-35 392 1 75 8 20 24 -184z m54 -417 c25 -134 26 -183 1 -64 -20 93 -34 187
-27 180 3 -3 14 -55 26 -116z m78 -444 c-3 -16 -38 158 -36 181 1 8 10 -26 20
-76 11 -49 18 -97 16 -105z m10 -52 c-3 -7 -5 -2 -5 12 0 14 2 19 5 13 2 -7 2
-19 0 -25z m50 -268 c-2 -8 -11 26 -20 75 -27 147 -28 190 -2 60 14 -66 24
-127 22 -135z m7435 14 c59 -30 106 -128 115 -239 4 -51 2 -65 -19 -95 -30
-44 -80 -70 -138 -70 -78 0 -117 35 -184 167 -46 91 -29 199 36 234 55 30 134
31 190 3z m-7358 -254 c5 -17 4 -20 -2 -10 -5 8 -13 26 -16 40 -5 17 -4 20 2
10 5 -8 13 -26 16 -40z m41 -116 c4 -25 3 -24 -8 6 -8 19 -17 46 -20 60 -5 19
-3 17 8 -6 7 -17 16 -44 20 -60z m70 -210 c4 -25 3 -24 -8 6 -8 19 -17 46 -20
60 -5 19 -3 17 8 -6 7 -17 16 -44 20 -60z m102 -250 c-5 -6 -53 85 -61 116 -4
14 10 -6 29 -44 20 -37 34 -70 32 -72z m5396 15 c63 -75 189 -174 280 -220 31
-16 57 -31 57 -34 0 -9 -137 58 -160 79 -14 12 -51 42 -83 65 -69 52 -185 183
-160 180 4 0 34 -32 66 -70z"/>
<path d="M6630 12291 l-35 -6 -6 -155 c-4 -85 -7 -326 -8 -534 l-1 -379 84 5
c99 7 131 23 200 99 55 61 90 132 119 242 18 69 21 108 20 242 0 143 -3 168
-26 237 -41 127 -101 205 -182 236 -40 15 -122 21 -165 13z"/>
<path d="M2024 11661 c-34 -21 -64 -57 -64 -78 0 -10 32 -13 134 -13 74 0 137
4 140 9 9 14 -39 67 -78 85 -45 21 -94 20 -132 -3z"/>
<path d="M4298 11632 c-67 -44 -98 -118 -98 -236 0 -74 3 -87 30 -130 47 -74
124 -94 206 -55 51 25 64 63 71 206 7 150 -3 195 -47 218 -40 21 -128 19 -162
-3z"/>
<path d="M7803 11590 c-151 -35 -195 -261 -72 -365 44 -37 74 -47 138 -46 190
2 281 223 147 357 -57 57 -126 75 -213 54z"/>
<path d="M10771 9421 c-27 -50 -16 -158 17 -169 9 -3 12 20 12 92 0 94 -8 116
-29 77z"/>
<path d="M5935 9010 c3 -5 8 -10 11 -10 2 0 4 5 4 10 0 6 -5 10 -11 10 -5 0
-7 -4 -4 -10z"/>
<path d="M5211 7311 c-21 -13 26 -35 136 -61 98 -24 123 -22 123 9 0 29 -27
40 -132 51 -113 12 -110 12 -127 1z"/>
<path d="M6015 7063 c-90 -7 -146 -15 -142 -19 17 -17 150 -35 327 -45 267
-14 261 -10 396 -249 33 -58 66 -117 74 -132 7 -16 15 -27 16 -25 9 8 -54 195
-89 265 -50 99 -87 138 -153 156 -27 8 -80 24 -119 35 -67 20 -177 25 -310 14z"/>
<path d="M5110 5258 c0 -18 18 -34 28 -24 3 4 -2 14 -11 23 -16 16 -17 16 -17
1z"/>
<path d="M8443 2336 l-28 -25 25 -9 c29 -11 60 9 60 40 0 25 -24 23 -57 -6z"/>
<path d="M8262 113 c-15 -6 -72 -87 -72 -102 0 -26 46 -9 68 24 28 45 49 45
138 0 63 -32 76 -35 154 -35 l85 1 -55 24 c-30 13 -65 24 -77 25 -12 0 -54 16
-94 35 -68 32 -114 41 -147 28z"/>
</g>
</svg>
